<svg id="svg" version="1.1" xmlns="http://www.w3.org/2000/svg" xmlns:xlink="http://www.w3.org/1999/xlink" width="400" height="400" viewBox="0, 0, 400,400"><g id="svgg"><path id="path0" d="M226.500 73.603 C 218.197 77.592,218.286 78.091,228.621 85.513 C 240.248 93.863,244.294 91.741,239.025 80.055 C 234.404 69.807,234.404 69.807,226.500 73.603 M193.500 90.160 C 185.146 95.026,204.422 108.003,213.184 103.412 L 218.574 100.587 209.427 94.294 C 199.390 87.388,198.608 87.185,193.500 90.160 M163.283 106.545 C 157.140 111.038,175.420 122.464,182.672 118.664 C 189.384 115.147,189.488 115.516,180.043 109.266 C 171.091 103.342,168.287 102.887,163.283 106.545 M136.798 120.806 C 136.205 122.349,137.584 127.264,139.860 131.726 C 146.398 144.541,145.244 156.697,134.141 192.000 L 124.391 223.000 128.696 225.857 C 149.866 239.909,165.881 265.467,181.281 309.780 C 190.888 337.424,190.636 336.951,194.914 335.310 C 197.589 334.283,198.000 327.017,198.000 280.792 L 198.000 227.459 193.000 222.825 C 180.811 211.529,194.024 193.636,207.555 203.113 C 214.001 207.628,213.692 218.799,207.000 223.184 L 202.000 226.460 202.000 281.230 C 202.000 348.536,203.625 351.709,218.016 312.500 C 235.407 265.118,251.700 238.529,272.528 223.539 C 275.834 221.160,275.424 219.112,266.028 191.075 C 259.134 170.503,256.000 157.913,256.000 150.794 C 256.000 140.511,255.952 140.432,249.219 139.646 C 238.378 138.380,237.577 139.566,243.011 148.839 C 249.570 160.031,249.584 160.000,238.034 160.000 C 228.116 160.000,228.043 159.953,223.122 150.240 C 219.127 142.358,217.004 140.308,212.088 139.586 C 204.935 138.536,204.467 140.645,210.000 149.000 C 216.270 158.467,215.326 160.305,204.552 159.610 C 195.358 159.016,190.482 154.403,185.535 141.618 C 184.842 139.827,174.671 137.995,173.260 139.407 C 172.666 140.001,174.404 144.878,177.123 150.244 L 182.067 160.000 172.159 160.000 C 162.327 160.000,162.207 159.922,156.807 150.000 C 153.813 144.500,150.607 140.000,149.682 140.000 C 146.172 140.000,148.204 136.549,153.000 134.364 C 159.833 131.251,159.358 129.863,149.287 123.500 C 139.299 117.190,138.270 116.968,136.798 120.806 " stroke="none" fill="#000000" fill-rule="evenodd"></path></g></svg>